<?xml version="1.0"?>
<svg xmlns="http://www.w3.org/2000/svg" viewBox="0 0 64 64">
    <path d="M 31 0 C 20.8 0 13.129531 5.969375 10.769531 15.109375 C 10.629531 15.159375 10.479844 15.209531 10.339844 15.269531 C 6.2498438 16.869531 3.0591406 19.730313 1.3691406 23.320312 C -0.43085938 27.160312 -0.46046875 31.530703 1.2695312 35.970703 C 2.9795312 40.340703 6.6197656 44.669297 11.009766 47.529297 C 14.249766 49.639297 17.510156 50.740234 20.410156 50.740234 C 21.527156 50.740234 22.5845 50.564375 23.5625 50.234375 L 30 61.271484 L 30 63 C 30 63.552 30.447 64 31 64 C 31.553 64 32 63.552 32 63 L 32 61.277344 L 40.857422 46.515625 C 40.902422 46.440625 40.918406 46.357344 40.941406 46.277344 C 41.309406 46.314344 41.680594 46.339844 42.058594 46.339844 C 45.668594 46.339844 49.739609 44.640703 53.599609 41.470703 C 58.199609 37.680703 61.768438 32.339453 63.148438 27.189453 C 64.549437 21.969453 63.959219 17.050937 61.449219 12.960938 C 59.099219 9.1309375 55.149609 6.2995313 50.349609 5.0195312 C 48.259609 4.4595313 46.229297 4.2307813 44.279297 4.3007812 C 40.759297 1.5607812 36.21 0 31 0 z M 31 2 C 34.89 2 38.360234 2.9496875 41.240234 4.6796875 C 42.080234 5.1796875 42.859844 5.7391406 43.589844 6.3691406 C 47.609844 9.7891406 50 15.030547 50 21.310547 C 50 29.860547 45.510547 38.979062 39.810547 44.039062 C 39.210547 44.569063 38.600703 45.06 37.970703 45.5 C 35.710703 47.08 33.33 48 31 48 C 29.92 48 28.820469 47.799688 27.730469 47.429688 C 27.070469 47.199688 26.409766 46.910547 25.759766 46.560547 C 18.489766 42.680547 12 31.590547 12 21.310547 C 12 19.680547 12.160703 18.120391 12.470703 16.650391 C 12.620703 15.890391 12.820781 15.159219 13.050781 14.449219 C 15.540781 6.8692188 22.23 2 31 2 z M 30.916016 3.9609375 C 29.895766 3.9669375 28.860406 4.0654063 27.816406 4.2539062 C 27.169406 4.3709062 26.525344 4.5220781 25.902344 4.7050781 C 25.373344 4.8610781 25.068609 5.4172656 25.224609 5.9472656 C 25.352609 6.3832656 25.750594 6.6640625 26.183594 6.6640625 C 26.276594 6.6640625 26.372797 6.6510469 26.466797 6.6230469 C 27.020797 6.4600469 27.592922 6.3266563 28.169922 6.2226562 C 30.024922 5.8876563 31.839406 5.8745469 33.566406 6.1855469 C 34.117406 6.2895469 34.629516 5.9238594 34.728516 5.3808594 C 34.826516 4.8368594 34.465875 4.31675 33.921875 4.21875 C 32.940875 4.04125 31.936266 3.9549375 30.916016 3.9609375 z M 37.369141 5.328125 C 36.979656 5.3190313 36.605797 5.5395156 36.435547 5.9160156 C 36.207547 6.4190156 36.431547 7.0102812 36.935547 7.2382812 C 37.670547 7.5702812 38.404234 7.9725937 39.115234 8.4335938 C 39.283234 8.5425937 39.471203 8.5957031 39.658203 8.5957031 C 39.985203 8.5957031 40.306047 8.4336719 40.498047 8.1386719 C 40.798047 7.6756719 40.665172 7.0558594 40.201172 6.7558594 C 39.406172 6.2398594 38.585813 5.7890156 37.757812 5.4160156 C 37.631813 5.3590156 37.498969 5.3311563 37.369141 5.328125 z M 46.529297 6.3691406 C 47.609297 6.4491406 48.710078 6.6492188 49.830078 6.9492188 C 54.140078 8.0992188 57.66 10.609766 59.75 14.009766 C 61.96 17.619766 62.470703 21.989922 61.220703 26.669922 C 59.940703 31.439922 56.610312 36.389922 52.320312 39.919922 C 48.920313 42.729922 45.400078 44.260078 42.330078 44.330078 C 47.740078 38.990078 52 30.450547 52 21.310547 C 52 15.270547 49.989297 10.099141 46.529297 6.3691406 z M 56.736328 14.035156 C 56.482453 14.003406 56.216047 14.069734 55.998047 14.240234 C 55.562047 14.580234 55.486172 15.208531 55.826172 15.644531 C 57.221172 17.430531 57.988828 19.617656 58.048828 21.972656 C 58.062828 22.515656 58.507828 22.947266 59.048828 22.947266 L 59.074219 22.947266 C 59.626219 22.933266 60.061828 22.475828 60.048828 21.923828 C 59.977828 19.137828 59.063344 16.540063 57.402344 14.414062 C 57.231844 14.196562 56.990203 14.066906 56.736328 14.035156 z M 10.289062 17.470703 C 10.099062 18.700703 10 19.980547 10 21.310547 C 10 32.850547 16.779609 43.420312 24.099609 47.820312 C 23.809609 47.980312 23.510938 48.120234 23.210938 48.240234 C 20.260938 49.400234 16.199609 48.529375 12.099609 45.859375 C 8.0496094 43.209375 4.7008594 39.240234 3.1308594 35.240234 C 1.6008594 31.320234 1.6196875 27.499687 3.1796875 24.179688 C 4.5496875 21.279688 7.0490625 18.910703 10.289062 17.470703 z M 19.205078 24.894531 L 17.21875 25.119141 C 16.66975 25.181141 16.275891 25.676609 16.337891 26.224609 C 16.395891 26.735609 16.828078 27.113281 17.330078 27.113281 C 17.367078 27.113281 17.405359 27.111422 17.443359 27.107422 L 19.429688 26.882812 C 19.978687 26.819812 20.372547 26.324391 20.310547 25.775391 C 20.248547 25.227391 19.752078 24.830531 19.205078 24.894531 z M 20.570312 29.828125 C 20.440422 29.824906 20.307688 29.845734 20.179688 29.896484 L 18.318359 30.628906 C 17.804359 30.830906 17.550906 31.409828 17.753906 31.923828 C 17.907906 32.317828 18.286547 32.558594 18.685547 32.558594 C 18.807547 32.558594 18.930781 32.536281 19.050781 32.488281 L 20.912109 31.757812 C 21.425109 31.556813 21.678563 30.977891 21.476562 30.462891 C 21.325812 30.076641 20.959984 29.837781 20.570312 29.828125 z M 23.158203 34.292969 C 22.905203 34.254719 22.637563 34.313516 22.414062 34.478516 L 20.806641 35.666016 C 20.363641 35.994016 20.267703 36.620453 20.595703 37.064453 C 20.791703 37.330453 21.095344 37.470703 21.402344 37.470703 C 21.608344 37.470703 21.816094 37.406437 21.996094 37.273438 L 23.603516 36.085938 C 24.046516 35.757937 24.142453 35.1315 23.814453 34.6875 C 23.649953 34.4655 23.411203 34.331219 23.158203 34.292969 z M 26.429688 37.953125 C 26.175187 37.982 25.931266 38.108719 25.759766 38.324219 L 24.513672 39.888672 C 24.169672 40.320672 24.242828 40.948969 24.673828 41.292969 C 24.857828 41.438969 25.076922 41.511719 25.294922 41.511719 C 25.588922 41.511719 25.881125 41.382766 26.078125 41.134766 L 27.324219 39.570312 C 27.668219 39.138312 27.595063 38.508062 27.164062 38.164062 C 26.948563 37.992063 26.684188 37.92425 26.429688 37.953125 z M 37.65625 47.960938 L 32 57.390625 L 32 49.943359 C 33.846 49.757359 35.76525 49.064938 37.65625 47.960938 z M 26.130859 48.880859 C 27.434859 49.457859 28.736 49.812453 30 49.939453 L 30 57.300781 L 25.375 49.371094 C 25.63 49.215094 25.887859 49.062859 26.130859 48.880859 z"/>
</svg>
