<svg id="Capa_1" enable-background="new 0 0 512 512" height="512" viewBox="0 0 512 512" width="512" xmlns="http://www.w3.org/2000/svg"><g><path d="m145.174 269.599h-12.311c-5.522 0-10 4.477-10 10s4.478 10 10 10h12.311c5.522 0 10-4.477 10-10s-4.477-10-10-10z"/><path d="m262.155 269.599h-12.31c-5.522 0-10 4.477-10 10s4.478 10 10 10h12.31c5.522 0 10-4.477 10-10s-4.477-10-10-10z"/><path d="m379.052 269.599h-12.311c-5.522 0-10 4.477-10 10s4.478 10 10 10h12.311c5.522 0 10-4.477 10-10s-4.477-10-10-10z"/><path d="m165.938 492c-5.522 0-10 4.477-10 10s4.478 10 10 10h.028c5.522 0 9.986-4.477 9.986-10s-4.492-10-10.014-10z"/><path d="m456.463 323.088h-7.701v-69.399c14.173-6.589 24.026-20.941 24.026-37.556v-73.756c0-22.848-18.598-41.435-41.458-41.435h-128.759c1.833-5.213 2.801-10.735 2.801-16.362 0-23.339-16.284-42.934-38.083-48.055 2.301-9.371 7.312-13.615 15.263-17.57 4.944-2.459 6.959-8.462 4.499-13.407-2.459-4.944-8.461-6.959-13.407-4.499-15.508 7.715-23.783 18.434-26.645 34.995-22.954 4.243-40.399 24.385-40.399 48.536 0 5.623.972 11.145 2.812 16.362h-128.742c-22.86 0-41.458 18.588-41.458 41.435v73.756c0 16.615 9.853 30.967 24.026 37.556v69.399h-7.729c-21.233 0-38.508 17.265-38.508 38.487v111.909c0 21.238 17.274 38.516 38.508 38.516h65.498c5.522 0 10-4.477 10-10s-4.478-10-10-10h-65.498c-10.205 0-18.508-8.306-18.508-18.516v-57.893l16.574 10.547c17.945 11.411 46.058 11.411 64.006-.001l31.938-20.323c11.33-7.206 31.207-7.205 42.537-.001l31.935 20.321c17.932 11.425 46.05 11.427 64.012.003l31.945-20.328c11.321-7.212 31.18-7.21 42.505.005l31.961 20.319c8.972 5.716 20.485 8.574 31.998 8.574 11.51 0 23.017-2.856 31.983-8.569l16.603-10.556v57.901c0 10.21-8.315 18.516-18.536 18.516h-245.593c-5.522 0-10 4.477-10 10s4.478 10 10 10h245.594c21.249 0 38.536-17.278 38.536-38.516v-111.908c0-21.222-17.287-38.487-38.536-38.487zm-229.863-238.508c0-16.195 13.188-29.37 29.397-29.372h.013.003c16.19.007 29.359 13.18 29.359 29.372 0 5.861-1.75 11.539-4.985 16.362h-48.778c-3.251-4.835-5.009-10.514-5.009-16.362zm-167.388 57.797c0-11.82 9.626-21.435 21.458-21.435h350.66c11.832 0 21.458 9.616 21.458 21.435v73.756c0 11.804-9.626 21.407-21.458 21.407s-21.458-9.603-21.458-21.407v-7.483c0-20.378-16.588-36.956-36.976-36.956-20.404 0-37.004 16.579-37.004 36.956v7.483c0 11.804-9.626 21.407-21.458 21.407s-21.458-9.603-21.458-21.407v-7.483c0-20.378-16.588-36.956-36.976-36.956-20.404 0-37.005 16.579-37.005 36.956v7.483c0 11.804-9.626 21.407-21.458 21.407s-21.458-9.603-21.458-21.407v-7.483c0-20.378-16.587-36.956-36.975-36.956s-36.976 16.579-36.976 36.956v7.483c0 11.804-9.626 21.407-21.458 21.407s-21.458-9.603-21.458-21.407v-73.756zm24.026 115.075c21.668-1.33 38.889-19.35 38.889-41.32v-7.483c0-9.35 7.615-16.956 16.976-16.956 9.36 0 16.976 7.607 16.976 16.956v7.483c0 22.832 18.598 41.407 41.458 41.407s41.458-18.575 41.458-41.407v-7.483c0-9.35 7.628-16.956 17.005-16.956 9.361 0 16.977 7.607 16.977 16.956v7.483c0 22.832 18.598 41.407 41.458 41.407s41.458-18.575 41.458-41.407v-7.483c0-9.35 7.628-16.956 17.004-16.956 9.361 0 16.977 7.607 16.977 16.956v7.483c0 21.97 17.222 39.989 38.889 41.32v65.635h-345.525zm364.419 151.814c-11.32 7.213-31.179 7.211-42.505-.005l-31.961-20.319c-17.942-11.432-46.05-11.431-63.984-.003l-31.938 20.323c-11.341 7.212-31.216 7.215-42.537.001l-31.942-20.326c-17.945-11.411-46.058-11.411-64.006.001l-31.938 20.323c-11.33 7.205-31.207 7.206-42.537.001l-27.308-17.377v-30.311c0-10.194 8.303-18.487 18.508-18.487h400.954c10.221 0 18.536 8.293 18.536 18.487v30.308z"/></g></svg>