<svg id="Capa_1" enable-background="new 0 0 512 512" height="512" viewBox="0 0 512 512" width="512" xmlns="http://www.w3.org/2000/svg"><g><g><g><g><g><path d="m502 409h-41.944v-233.263c0-5.522-4.478-10-10-10h-97.026c.024-.024.048-.048.072-.071 12.063-12.064 17.361-26.12 15.592-40.669 17.316-2.944 29.313-20.945 30.729-23.159 1.481-2.316 1.944-5.14 1.279-7.807-.824-3.307-8.651-32.185-30.542-32.46-.275-21.89-29.152-29.717-32.459-30.541-2.665-.666-5.49-.203-7.807 1.279-2.214 1.416-20.215 13.414-23.159 30.729-14.55-1.77-28.607 3.529-40.672 15.594-1.97 1.972-3.869 4.221-5.644 6.684-1.592 2.208-3.068 4.586-4.42 7.103-1.351-2.517-2.826-4.893-4.418-7.1-1.776-2.466-3.676-4.715-5.647-6.688-12.063-12.063-26.121-17.36-40.67-15.591-2.943-17.316-20.945-29.314-23.159-30.73-2.317-1.482-5.142-1.945-7.807-1.279-3.307.824-32.184 8.651-32.459 30.541-21.891.275-29.718 29.153-30.542 32.46-.665 2.667-.202 5.49 1.279 7.807 1.416 2.214 13.414 20.215 30.729 23.159-1.769 14.548 3.529 28.604 15.59 40.667.024.024.049.049.074.073h-97.025c-5.522 0-10 4.478-10 10v233.262h-41.944c-5.523 0-10 4.477-10 10v12.628c0 27.371 22.269 49.64 49.64 49.64h161.154c5.523 0 10-4.478 10-10s-4.477-10-10-10h-161.154c-16.344 0-29.64-13.296-29.64-29.64v-2.628h472v2.628c0 16.344-13.296 29.64-29.64 29.64h-161.154c-5.522 0-10 4.478-10 10s4.478 10 10 10h161.154c27.371 0 49.64-22.269 49.64-49.64v-12.628c0-5.522-4.478-10-10-10zm-430.056-120.364c6.562 4.127 14.322 6.516 22.63 6.516 7.934 0 15.485-2.237 21.969-6.158 1.336 22.31 19.912 40.053 42.553 40.053 23.507 0 42.631-19.124 42.631-42.63v-23.201c6.562 4.126 14.323 6.516 22.63 6.516 8.309 0 16.068-2.389 22.631-6.516v20.169c0 22.873 18.608 41.481 41.482 41.481 21.162 0 38.674-15.928 41.176-36.424 6.627 4.246 14.5 6.71 22.938 6.71 7.934 0 15.484-2.237 21.968-6.158 1.337 22.31 19.912 40.053 42.554 40.053 8.435 0 16.309-2.426 22.952-6.611v85.077h-368.114zm265.188-236.845c6.304 2.391 13.03 6.564 13.03 10.096 0 2.449-.557 5.379-1.654 8.709-1.183 3.586-.244 7.532 2.426 10.202 2.671 2.669 6.615 3.61 10.202 2.426 3.332-1.099 6.262-1.655 8.708-1.655 3.546 0 7.68 6.669 10.091 13.036-3.997 4.833-10.468 10.799-16.016 10.799-.69 0-2.145-.205-4.562-1.46l-15.784-15.784-15.785-15.784c-1.255-2.417-1.46-3.872-1.46-4.562 0-5.557 5.98-12.035 10.804-16.023zm-60.487 45.219c1.151-1.599 2.352-3.024 3.564-4.237 6.783-6.783 13.623-10.129 20.948-10.129 3.511 0 7.134.77 10.913 2.298l.579.579 16.782 16.781 17.361 17.36c4.716 11.663 2.203 21.826-7.834 31.862-1.173 1.174-2.559 2.343-4.12 3.478-20.491 14.887-55.014 12.134-62.627 4.522-7.575-7.574-10.345-42.018 4.434-62.514zm-44.855-4.239c1.214 1.215 2.414 2.641 3.567 4.242 14.776 20.493 12.007 54.937 4.433 62.511-7.613 7.613-42.136 10.366-62.63-4.523-1.559-1.133-2.944-2.302-4.119-3.477-10.035-10.034-12.548-20.197-7.832-31.86l17.361-17.36 16.782-16.781.579-.579c11.661-4.719 21.827-2.207 31.859 7.827zm-99.724 1.838c2.415-6.379 6.546-13.04 10.09-13.04 2.446 0 5.376.557 8.708 1.655 3.582 1.184 7.53.244 10.202-2.426 2.67-2.67 3.608-6.616 2.426-10.202-1.098-3.33-1.654-6.26-1.654-8.709 0-3.545 6.669-7.679 13.035-10.089 4.833 3.996 10.799 10.467 10.799 16.015 0 .69-.205 2.145-1.46 4.562l-15.785 15.785-15.785 15.784c-2.417 1.255-3.871 1.46-4.561 1.46-5.552 0-12.026-5.973-16.015-10.795zm-60.122 91.128h368.111v100.68c0 12.479-10.296 22.63-22.952 22.63-12.478 0-22.631-10.151-22.631-22.63v-26.958c0-5.111-3.854-9.399-8.937-9.943-.359-.038-.718-.058-1.072-.058-4.653 0-8.76 3.244-9.765 7.885-2.234 10.319-11.536 17.81-22.118 17.81-12.479 0-22.63-10.151-22.63-22.63 0-5.522-4.478-10-10-10s-10 4.478-10 10v30.862c0 11.845-9.637 21.481-21.482 21.481s-21.482-9.637-21.482-21.481v-56.283c0-5.522-4.478-10-10-10-5.523 0-10 4.478-10 10 0 12.479-10.152 22.63-22.631 22.63s-22.63-10.151-22.63-22.63c0-5.522-4.478-10-10-10s-10 4.478-10 10v59.315c0 12.479-10.152 22.63-22.631 22.63s-22.63-10.151-22.63-22.63v-26.958c0-5.111-3.855-9.399-8.937-9.943-5.078-.543-9.756 2.833-10.837 7.827-2.234 10.319-11.536 17.81-22.118 17.81-12.479 0-22.63-10.151-22.63-22.63v-66.786z"/><path d="m265.42 467.44c-1.636-3.924-5.703-6.454-9.949-6.147-4.216.305-7.837 3.315-8.941 7.388-1.042 3.846.387 8.103 3.564 10.52 3.381 2.573 8.096 2.724 11.636.379 3.94-2.61 5.474-7.783 3.69-12.14z"/></g></g></g></g></g></svg>