<svg xmlns="http://www.w3.org/2000/svg" viewBox="0 0 1062 1099.5"><defs><style>.cls-1{fill:none;stroke:#545253;stroke-miterlimit:10;stroke-width:23px;}.cls-2{fill:#545253;}</style></defs><title>calander</title><g id="Layer_4" data-name="Layer 4"><path class="cls-1" d="M1023,1097.1H71.2a9.5,9.5,0,0,1-9.5-9.5V457.3a9.6,9.6,0,0,1,9.5-9.5H1023a9.6,9.6,0,0,1,9.5,9.5V730.1a9.5,9.5,0,0,0,9.5,9.5h13.5a9.6,9.6,0,0,0,9.5-9.5v-559a9.6,9.6,0,0,0-9.5-9.5H35.5a9.6,9.6,0,0,0-9.5,9.5v949a9.6,9.6,0,0,0,9.5,9.5h1020a9.6,9.6,0,0,0,9.5-9.5v-264a9.6,9.6,0,0,0-9.5-9.5H1042a9.5,9.5,0,0,0-9.5,9.5v231.5A9.5,9.5,0,0,1,1023,1097.1Z" transform="translate(-14.5 -41.6)"/><rect class="cls-2" x="1009.7" y="727" width="48" height="55" rx="9.6" ry="9.6"/><rect class="cls-1" x="95.1" y="357.1" width="161.1" height="11.06" rx="5.5" ry="5.5" transform="translate(142.2 -81.5) rotate(23.1)"/><rect class="cls-1" x="94.8" y="307.8" width="161.1" height="11.06" rx="5.5" ry="5.5" transform="translate(122.7 -85.3) rotate(23.1)"/><rect class="cls-1" x="94.7" y="257.8" width="161.1" height="11.06" rx="5.5" ry="5.5" transform="translate(103.1 -89.3) rotate(23.1)"/><rect class="cls-2" x="350.5" width="42" height="210" rx="12" ry="12"/><rect class="cls-2" x="684.5" width="42" height="210" rx="12" ry="12"/><rect class="cls-1" x="284.6" y="308" width="14.4" height="11.06" rx="5.5" ry="5.5" transform="translate(132.2 -131.1) rotate(23.1)"/></g></svg>