<?xml version="1.0"?>
<svg xmlns="http://www.w3.org/2000/svg" viewBox="0 0 64 64">
    <path d="M 3 8 C 1.346 8 0 9.346 0 11 L 0 53 C 0 54.654 1.346 56 3 56 L 13 56 C 13.552 56 14 55.552 14 55 L 14 53.222656 C 14 52.939656 13.880922 52.668516 13.669922 52.478516 C 13.238922 52.089516 13 51.564 13 51 C 13 49.897 13.897 49 15 49 C 16.103 49 17 49.897 17 51 C 17 51.565 16.761078 52.089516 16.330078 52.478516 C 16.119078 52.667516 16 52.938656 16 53.222656 L 16 55 C 16 55.552 16.448 56 17 56 L 29 56 C 29.552 56 30 55.552 30 55 L 30 53.222656 C 30 52.939656 29.880922 52.668516 29.669922 52.478516 C 29.238922 52.089516 29 51.564 29 51 C 29 49.897 29.897 49 31 49 C 32.103 49 33 49.897 33 51 C 33 51.565 32.761078 52.089516 32.330078 52.478516 C 32.119078 52.667516 32 52.938656 32 53.222656 L 32 55 C 32 55.552 32.448 56 33 56 L 40.568359 56 C 40.628359 56.028 40.674281 56.07275 40.738281 56.09375 L 43.140625 56.869141 L 43.917969 59.271484 C 44.155969 60.005484 44.907203 60.437391 45.658203 60.275391 L 48.126953 59.746094 L 50 61.439453 C 50.287 61.698453 50.646859 61.826172 51.005859 61.826172 C 51.364859 61.826172 51.724719 61.698453 52.011719 61.439453 L 53.884766 59.746094 L 56.351562 60.275391 C 57.105562 60.441391 57.85475 60.007484 58.09375 59.271484 L 58.869141 56.869141 L 61.271484 56.09375 C 62.006484 55.85575 62.439344 55.106563 62.277344 54.351562 L 61.996094 53.042969 C 61.996094 53.027969 62 53.015 62 53 L 62 51.603516 L 63.439453 50.009766 C 63.957453 49.436766 63.957453 48.571047 63.439453 47.998047 L 62 46.40625 L 62 44.945312 L 62.275391 43.658203 C 62.369391 43.221203 62.248 42.799844 62 42.464844 L 62 11 C 62 9.346 60.654 8 59 8 L 3 8 z M 3 10 L 59 10 C 59.551 10 60 10.449 60 11 L 60 41.505859 L 58.869141 41.140625 L 58.09375 38.738281 C 57.85675 38.004281 57.105562 37.576375 56.351562 37.734375 L 53.884766 38.263672 L 52.011719 36.570312 C 51.438719 36.052312 50.573 36.052312 50 36.570312 L 48.126953 38.263672 L 45.658203 37.734375 C 44.907203 37.572375 44.156969 38.003281 43.917969 38.738281 L 43.140625 41.140625 L 40.738281 41.917969 C 40.003281 42.155969 39.572375 42.903203 39.734375 43.658203 L 40.263672 46.126953 L 38.570312 48 C 38.052312 48.573 38.052312 49.438719 38.570312 50.011719 L 40.263672 51.884766 L 39.810547 54 L 34 54 L 34 53.630859 C 34.64 52.902859 35 51.967 35 51 C 35 48.794 33.206 47 31 47 C 28.794 47 27 48.794 27 51 C 27 51.966 27.36 52.902859 28 53.630859 L 28 54 L 18 54 L 18 53.630859 C 18.64 52.902859 19 51.967 19 51 C 19 48.794 17.206 47 15 47 C 12.794 47 11 48.794 11 51 C 11 51.966 11.36 52.902859 12 53.630859 L 12 54 L 3 54 C 2.449 54 2 53.551 2 53 L 2 11 C 2 10.449 2.449 10 3 10 z M 19 16 C 15.14 16 12 19.14 12 23 L 12 25 C 12 26.615 12.551188 28.310609 13.492188 29.724609 C 10.358187 30.849609 7.6846562 33.251406 6.0976562 36.566406 C 5.8586563 37.064406 6.0703594 37.662391 6.5683594 37.900391 C 7.0653594 38.139391 7.6623906 37.927687 7.9003906 37.429688 C 9.3793906 34.340688 11.943203 32.166469 14.908203 31.355469 C 16.044203 32.357469 17.444 33 19 33 C 20.556 33 21.956797 32.358422 23.091797 31.357422 C 26.056797 32.168422 28.618656 34.341641 30.097656 37.431641 C 30.269656 37.790641 30.628 38 31 38 C 31.145 38 31.292641 37.969344 31.431641 37.902344 C 31.930641 37.664344 32.139391 37.066359 31.900391 36.568359 C 30.313391 33.253359 27.641813 30.849609 24.507812 29.724609 C 25.449813 28.310609 26 26.616 26 25 L 26 23 C 26 19.14 22.86 16 19 16 z M 19 18 C 21.757 18 24 20.243 24 23 L 24 25 C 24 27.718 21.77 31 19 31 C 16.23 31 14 27.718 14 25 L 14 23 C 14 20.243 16.243 18 19 18 z M 35 22 C 34.448 22 34 22.448 34 23 C 34 23.552 34.448 24 35 24 L 53 24 C 53.552 24 54 23.552 54 23 C 54 22.448 53.552 22 53 22 L 35 22 z M 35 28 C 34.448 28 34 28.448 34 29 C 34 29.552 34.448 30 35 30 L 45 30 C 45.553 30 46 29.552 46 29 C 46 28.448 45.552 28 45 28 L 35 28 z M 49 28 C 48.448 28 48 28.448 48 29 C 48 29.552 48.448 30 49 30 L 53 30 C 53.552 30 54 29.552 54 29 C 54 28.448 53.552 28 53 28 L 49 28 z M 51.005859 38.357422 L 52.732422 39.917969 C 53.089422 40.241969 53.584734 40.371484 54.052734 40.271484 L 56.330078 39.783203 L 57.044922 41.998047 C 57.191922 42.456047 57.554719 42.818797 58.011719 42.966797 L 60.226562 43.681641 L 59.738281 45.957031 C 59.637281 46.427031 59.768797 46.921344 60.091797 47.277344 L 61.652344 49.003906 L 60.09375 50.730469 C 59.77075 51.087469 59.637281 51.582734 59.738281 52.052734 L 60.226562 54.328125 L 58.011719 55.044922 C 57.553719 55.191922 57.192922 55.552766 57.044922 56.009766 L 56.328125 58.224609 L 54.052734 57.736328 C 53.580734 57.635328 53.088422 57.769797 52.732422 58.091797 L 51.005859 59.652344 L 49.279297 58.091797 C 49.001297 57.839797 48.639484 57.703125 48.271484 57.703125 C 48.167484 57.703125 48.061031 57.714328 47.957031 57.736328 L 45.681641 58.224609 L 44.966797 56.009766 C 44.819797 55.551766 44.457 55.190969 44 55.042969 L 41.785156 54.328125 L 42.273438 52.052734 C 42.374437 51.582734 42.242922 51.088422 41.919922 50.732422 L 40.357422 49.003906 L 41.917969 47.277344 C 42.240969 46.920344 42.374438 46.427031 42.273438 45.957031 L 41.785156 43.679688 L 44 42.964844 C 44.458 42.817844 44.818797 42.455047 44.966797 41.998047 L 45.681641 39.783203 L 47.957031 40.271484 C 48.427031 40.374484 48.921344 40.239969 49.277344 39.917969 L 51.005859 38.357422 z M 6 40 C 5.4 40 5 40.447 5 41 L 5 43 C 5 43.553 5.4 44 6 44 C 6.6 44 7 43.553 7 43 L 7 41 C 7 40.448 6.6 40 6 40 z M 11 40 C 10.4 40 10 40.447 10 41 L 10 43 C 10 43.553 10.4 44 11 44 C 11.6 44 12 43.553 12 43 L 12 41 C 12 40.448 11.6 40 11 40 z M 16 40 C 15.4 40 15 40.447 15 41 L 15 43 C 15 43.553 15.4 44 16 44 C 16.6 44 17 43.553 17 43 L 17 41 C 17 40.448 16.6 40 16 40 z M 21 40 C 20.4 40 20 40.447 20 41 L 20 43 C 20 43.553 20.4 44 21 44 C 21.6 44 22 43.553 22 43 L 22 41 C 22 40.448 21.6 40 21 40 z M 26 40 C 25.4 40 25 40.447 25 41 L 25 43 C 25 43.553 25.4 44 26 44 C 26.6 44 27 43.553 27 43 L 27 41 C 27 40.448 26.6 40 26 40 z M 31 40 C 30.4 40 30 40.447 30 41 L 30 43 C 30 43.553 30.4 44 31 44 C 31.6 44 32 43.553 32 43 L 32 41 C 32 40.448 31.6 40 31 40 z M 36 40 C 35.4 40 35 40.447 35 41 L 35 43 C 35 43.553 35.4 44 36 44 C 36.6 44 37 43.553 37 43 L 37 41 C 37 40.448 36.6 40 36 40 z"/>
</svg>
