<svg id="Capa_1" enable-background="new 0 0 476.434 476.434" height="512" viewBox="0 0 476.434 476.434" width="512" xmlns="http://www.w3.org/2000/svg"><g><path d="m456.722 101.067-153.506-57.442-46.259-37.007c-11.033-8.824-26.447-8.824-37.48 0 0 .001 0 .001-.001.001l-46.258 37.006-153.506 57.442c-3.906 1.462-6.495 5.195-6.495 9.366v356c0 5.522 4.477 10 10 10h170.14c5.52 0 10-4.49 10-10s-4.48-10-10-10h-54.14v-44h198v44h-53.86c-5.51 0-10 4.49-10 10s4.49 10 10 10h.02 169.84c5.523 0 10-4.478 10-10v-356c0-4.17-2.589-7.904-6.495-9.366zm-224.752-78.831c3.679-2.941 8.816-2.941 12.494 0l25.245 20.196h-62.984zm-51.942 40.197h116.378l128.277 48.001h-372.932zm5.189 75.001c0 18.196-14.804 33-33 33s-33-14.804-33-33v-7h66zm20-7h66v7c0 18.196-14.804 33-33 33s-33-14.804-33-33zm86 0h66v7c0 18.196-14.804 33-33 33s-33-14.804-33-33zm-258 0h66v7c0 18.196-14.804 33-33 33s-33-14.804-33-33zm0 48.427c9.062 7.233 20.531 11.573 33 11.573s23.938-4.339 33-11.573v17.519c0 37.915-14.25 73.638-40.22 101.054h-25.78zm46 277.573h-46v-139h23.46c14.952 35.057 22.54 72.158 22.54 110.39zm40 0h-20v-74c0-13.336 20-13.336 20 0zm109-64h-89v-10c0-15.478-8.985-24.961-20-28.461v-24.7c0-11.028 8.972-20 20-20h79c5.514 0 10 4.486 10 10zm109-10v10h-89v-73.161c0-5.514 4.486-10 10-10h79c11.028 0 20 8.972 20 20v25.129c-11.015 3.446-20 12.787-20 28.032zm40 74h-20v-74c0-13.333 20-13.333 20 0zm0-102.033v-25.129c0-22.056-17.944-40-40-40h-79c-7.678 0-14.688 2.902-20 7.663-5.312-4.761-12.322-7.663-20-7.663h-79c-22.056 0-40 17.944-40 40v24.7c-2.907.924-5.664 2.276-8.161 4.033-3.928-16.497-9.267-32.68-16.008-48.474 28.529-30.923 44.168-70.833 44.168-113.153v-17.519c9.062 7.233 20.531 11.573 33 11.573 17.687 0 33.367-8.717 43-22.072 9.633 13.355 25.313 22.072 43 22.072s33.367-8.717 43-22.072c9.633 13.355 25.313 22.072 43 22.072 12.469 0 23.938-4.339 33-11.573v17.519c0 42.32 15.639 82.23 44.168 113.153-6.783 15.894-12.145 32.182-16.08 48.789-2.476-1.705-5.209-3.018-8.087-3.919zm66 102.033h-46v-28.61c0-38.231 7.588-75.333 22.54-110.39h23.46zm0-159h-25.78c-25.97-27.416-40.22-63.139-40.22-101.054v-17.519c9.062 7.233 20.531 11.573 33 11.573s23.938-4.339 33-11.573zm0-160c0 18.196-14.804 33-33 33s-33-14.804-33-33v-7h66zm-194.861 329c0 5.51-4.48 10-10 10-5.51 0-10-4.49-10-10s4.49-10 10-10c5.52 0 10 4.49 10 10z"/></g></svg>