<svg id="Layer_1" data-name="Layer 1" xmlns="http://www.w3.org/2000/svg" viewBox="0 0 362.2 446.6"><defs><style>.cls-1{fill:#f9739c;}.cls-2,.cls-3{fill:none;stroke:#232323;stroke-miterlimit:10;stroke-width:3.37px;}.cls-3{stroke-dasharray:16.05 16.05;}</style></defs><title>fav</title><path class="cls-1" d="M77.2,254.5q0-50.2,13.7-90.5t38-68.4a166.9,166.9,0,0,1,58.3-43.4Q221.1,37.1,261.6,37t72.6,14.8a158.8,158.8,0,0,1,56.1,42c15.5,18.1,27.6,40.2,36.1,66s12.8,54.8,12.8,86.8-4.2,60.6-12.5,87.3-20.4,49.7-36.1,69a165.1,165.1,0,0,1-57.8,45.2c-22.7,10.9-48.5,16.3-77.1,16.3-27,0-51.5-4.8-73.4-14.6A157.7,157.7,0,0,1,126.1,408c-15.5-18.2-27.6-40.3-36.1-66.2S77.2,286.7,77.2,254.5Zm61-1.7q0,38.8,4.1,67.9t11.5,50c5,14,11,25.5,18.1,34.7a89.3,89.3,0,0,0,23.9,21.9,86.3,86.3,0,0,0,28.7,11.4,155.3,155.3,0,0,0,32.6,3.3,157.7,157.7,0,0,0,32.7-3.3,89.5,89.5,0,0,0,29.1-11.5c9-5.5,17.1-13,24.5-22.3s13.5-21.3,18.6-35.6,9.2-31.4,12-51.1,4.2-42.9,4.2-69.3-1.4-48.5-4.1-67.9-6.5-36.1-11.5-50.1-11-25.7-18.1-34.9a90.5,90.5,0,0,0-23.8-21.9,88.8,88.8,0,0,0-28.5-11.4,163.1,163.1,0,0,0-32.6-3.2,153.6,153.6,0,0,0-32.9,3.4,91.4,91.4,0,0,0-29.2,11.5c-9,5.4-17.1,12.9-24.4,22.3s-13.6,21.3-18.7,35.6-9.2,31.3-12,51.1S138.2,226.4,138.2,252.8Z" transform="translate(-77 -37)"/><line class="cls-2" y1="444.9" x2="8.4" y2="444.9"/><line class="cls-3" x1="24.5" y1="444.9" x2="337.5" y2="444.9"/><line class="cls-2" x1="345.6" y1="444.9" x2="354" y2="444.9"/></svg>