<?xml version="1.0"?>
<svg xmlns="http://www.w3.org/2000/svg" viewBox="0 0 64 64">
    <path d="M 15 4 C 13.346 4 12 5.346 12 7 L 12 10 L 7 10 C 5.3 10 4 11.388766 4 13.009766 L 4 54.957031 C 4 56.578031 5.3 57.966797 7 57.966797 L 55 57.966797 C 56.7 57.966797 58 56.578031 58 54.957031 L 58 13.009766 C 58 11.388766 56.7 10 55 10 L 50 10 L 50 7 C 50 5.346 48.654 4 47 4 C 45.346 4 44 5.346 44 7 L 44 10 L 34 10 L 34 7 C 34 5.346 32.654 4 31 4 C 29.346 4 28 5.346 28 7 L 28 10 L 18 10 L 18 7 C 18 5.346 16.654 4 15 4 z M 15 6 C 15.551 6 16 6.449 16 7 L 16 15 C 16 15.551 15.551 16 15 16 C 14.449 16 14 15.551 14 15 L 14 7 C 14 6.449 14.449 6 15 6 z M 31 6 C 31.551 6 32 6.449 32 7 L 32 15 C 32 15.551 31.551 16 31 16 C 30.449 16 30 15.551 30 15 L 30 7 C 30 6.449 30.449 6 31 6 z M 47 6 C 47.551 6 48 6.449 48 7 L 48 15 C 48 15.551 47.551 16 47 16 C 46.449 16 46 15.551 46 15 L 46 7 C 46 6.449 46.449 6 47 6 z M 7 11.96875 L 12 11.96875 L 12 15 C 12 16.654 13.346 18 15 18 C 16.654 18 18 16.654 18 15 L 18 11.96875 L 28 11.96875 L 28 15 C 28 16.654 29.346 18 31 18 C 32.654 18 34 16.654 34 15 L 34 11.96875 L 44 11.96875 L 44 15 C 44 16.654 45.346 18 47 18 C 48.654 18 50 16.654 50 15 L 50 11.96875 L 55 11.96875 C 55.6 11.96875 56 12.430766 56 13.009766 L 56 20 C 55.4 20 55 20.447 55 21 L 55 23 C 55 23.553 55.4 24 56 24 L 56 54.957031 C 56 55.536031 55.6 56 55 56 L 7 56 C 6.4 56 6 55.536031 6 54.957031 L 6 24 C 6.6 24 7 23.553 7 23 L 7 21 C 7 20.447 6.6 20 6 20 L 6 13.009766 C 6 12.430766 6.4 11.96875 7 11.96875 z M 11 20 C 10.4 20 10 20.447 10 21 L 10 23 C 10 23.552 10.4 24 11 24 C 11.6 24 12 23.553 12 23 L 12 21 C 12 20.447 11.6 20 11 20 z M 16 20 C 15.4 20 15 20.447 15 21 L 15 23 C 15 23.552 15.4 24 16 24 C 16.6 24 17 23.553 17 23 L 17 21 C 17 20.447 16.6 20 16 20 z M 21 20 C 20.4 20 20 20.447 20 21 L 20 23 C 20 23.552 20.4 24 21 24 C 21.6 24 22 23.553 22 23 L 22 21 C 22 20.447 21.6 20 21 20 z M 26 20 C 25.4 20 25 20.447 25 21 L 25 23 C 25 23.552 25.4 24 26 24 C 26.6 24 27 23.553 27 23 L 27 21 C 27 20.447 26.6 20 26 20 z M 31 20 C 30.4 20 30 20.447 30 21 L 30 23 C 30 23.552 30.4 24 31 24 C 31.6 24 32 23.553 32 23 L 32 21 C 32 20.447 31.6 20 31 20 z M 36 20 C 35.4 20 35 20.447 35 21 L 35 23 C 35 23.552 35.4 24 36 24 C 36.6 24 37 23.553 37 23 L 37 21 C 37 20.447 36.6 20 36 20 z M 41 20 C 40.4 20 40 20.447 40 21 L 40 23 C 40 23.552 40.4 24 41 24 C 41.6 24 42 23.553 42 23 L 42 21 C 42 20.447 41.6 20 41 20 z M 46 20 C 45.4 20 45 20.447 45 21 L 45 23 C 45 23.552 45.4 24 46 24 C 46.6 24 47 23.553 47 23 L 47 21 C 47 20.447 46.6 20 46 20 z M 51 20 C 50.4 20 50 20.447 50 21 L 50 23 C 50 23.552 50.4 24 51 24 C 51.6 24 52 23.553 52 23 L 52 21 C 52 20.447 51.6 20 51 20 z M 31 27 C 30.448 27 30 27.448 30 28 L 30 36 L 22 36 C 21.448 36 21 36.448 21 37 C 21 37.552 21.448 38 22 38 L 30 38 L 30 46 C 30 46.552 30.448 47 31 47 C 31.552 47 32 46.552 32 46 L 32 38 L 40 38 C 40.552 38 41 37.552 41 37 C 41 36.448 40.552 36 40 36 L 32 36 L 32 28 C 32 27.448 31.552 27 31 27 z M 9 50 C 8.448 50 8 50.448 8 51 C 8 51.552 8.448 52 9 52 L 53 52 C 53.552 52 54 51.552 54 51 C 54 50.448 53.552 50 53 50 L 9 50 z"/>
</svg>
