<svg id="Capa_1" enable-background="new 0 0 512 512" height="512" viewBox="0 0 512 512" width="512" xmlns="http://www.w3.org/2000/svg"><g><path d="m414.333 105.103h-10v-55.103c0-27.57-22.43-50-50-50h-196.666c-27.57 0-50 22.43-50 50v55.103h-10c-16.542 0-30 13.458-30 30v6.832c0 16.542 13.458 30 30 30h10v20h-10c-16.542 0-30 13.458-30 30v6.832c0 16.542 13.458 30 30 30h10v203.233c0 27.57 22.43 50 50 50h196.667c27.57 0 50-22.43 50-50v-135.355c0-5.523-4.478-10-10-10s-10 4.477-10 10v85.355h-256.667v-312h256.667v136.645c0 5.523 4.478 10 10 10s10-4.477 10-10v-39.705h10.001c16.542 0 29.999-13.458 29.999-30v-31.837c-.001-16.542-13.459-30-30.001-30zm-316.666 46.832c-5.514 0-10-4.486-10-10v-6.832c0-5.514 4.486-10 10-10h10v26.832zm0 86.832c-5.514 0-10-4.486-10-10v-6.832c0-5.514 4.486-10 10-10h10v26.832zm286.666 193.233v30c0 16.542-13.458 30-30 30h-196.666c-16.542 0-30-13.458-30-30v-30zm-256.666-352v-30c0-16.542 13.458-30 30-30h196.667c16.542 0 30 13.458 30 30v30zm296.666 86.94c0 5.514-4.485 10-9.999 10h-10.001v-51.837h10c5.514 0 10 4.486 10 10z"/><path d="m281 40h-50c-5.523 0-10 4.477-10 10s4.477 10 10 10h50c5.522 0 10-4.477 10-10s-4.477-10-10-10z"/><circle cx="394.334" cy="281.645" r="10"/><path d="m255.995 210.149c-7.808-7.766-18.497-12.341-29.979-12.341-23.443 0-42.516 19.072-42.516 42.516 0 3.016.321 6.034.955 8.97 4.691 23.199 26.447 44.292 64.652 62.691 4.339 2.797 9.422 2.806 13.76.007 38.225-18.395 59.982-39.49 64.669-62.7.64-2.964.964-5.981.964-8.968 0-23.443-19.077-42.516-42.525-42.516-11.484 0-22.171 4.575-29.98 12.341zm52.505 30.175c0 1.587-.176 3.199-.523 4.794-.013.056-.024.111-.035.167-3.242 16.204-21.185 32.711-51.946 47.81-30.753-15.103-48.699-31.613-51.947-47.813-.011-.055-.022-.109-.034-.164-.341-1.566-.514-3.179-.514-4.794 0-12.415 10.101-22.516 22.516-22.516 9.09 0 17.24 5.411 20.761 13.786 1.561 3.711 5.193 6.124 9.218 6.124s7.658-2.413 9.218-6.124c3.523-8.375 11.671-13.786 20.762-13.786 12.42 0 22.524 10.101 22.524 22.516z"/></g></svg>